<?xml version="1.0" encoding="utf-8"?>
<!-- Generator: Adobe Illustrator 18.1.0, SVG Export Plug-In . SVG Version: 6.00 Build 0)  -->
<!DOCTYPE svg PUBLIC "-//W3C//DTD SVG 1.1//EN" "http://www.w3.org/Graphics/SVG/1.1/DTD/svg11.dtd">
<svg version="1.1" id="Ebene_1" xmlns="http://www.w3.org/2000/svg" xmlns:xlink="http://www.w3.org/1999/xlink" x="0px" y="0px"
	 viewBox="0 0 1133.9 566.9" enable-background="new 0 0 1133.9 566.9" xml:space="preserve">
<g>
	<path d="M741.1,342.6c0,0,16.2,52.9,17.1,62c0.9,9.1,1.8,18.2,1.8,24.6c0,6.4,1.7,59.8,2.6,63.4c0.9,3.6,1.8,19.6,4.8,21.9
		c3.1,2.3,12.3,0.9,13.6,4.1c1.3,3.2,8.8,9.1,11.8,9.6c3.1,0.5,22.8,5,16.6-5.9c-6.1-11-10.9-15.5-9.2-26.9c0,0,1.8-18.2,1.8-27.4
		c0-9.1-3.1-40.1-3.5-51.1c-0.4-10.9-2.6-49.7-2.6-57c0-7.3,0.9-33.8,0.9-33.8l6.6-2.3c0,0,10.1-5,7-20.1c0-8.2,1.3-6.4,1.3-6.4
		l4,3.6c0,0,0-37,0-41.1c0-4.1-2.2-38.8-3.1-51.5c-0.9-12.8-3.5-31.5-4.8-43.3c-1.3-11.9-1.7-27.4-7.4-29.6
		c-5.7-2.3-35.5-12.8-39.9-16.9c-7-5.5-3.1-10.5-3.1-15.1c0-4.6,1.8-6.8,1.8-6.8s10.5-39.2-14.5-43.8c0,0-35-1.8-19.3,49.3
		c0,0,0.9,6.8,0.4,10c-0.4,3.2-2.2,8.7-9.2,10c-3.5,0.5-33.3,13.2-35,16.9c-1.7,3.7-3.9,15.1-5.7,25.6c-1.8,10.5-6.1,50.2-6.1,56.1
		c0,5.9-1.7,45.6-1.7,48.8c0,3.2-0.4,31.5-0.4,31.5l6.1-0.5c0,0-2.6,10.5,0,16.9c2.6,6.4,7,11.4,11,11.4c3.9,0,3.5,1.8,3.5,1.8
		s-3.1,86.2-3.5,94.4c-0.4,8.2-3.1,62-4.4,64.3c-1.3,2.3-4.4,11.9-4.8,15.5c-0.4,3.7-14,12.8-14,15.5c0,2.7,2.6,9.6,14,8.2
		c11.4-1.4,14-8.2,15.3-9.1c1.3-0.9,15.8-1.8,15.8-1.8s3.5-3.6,3.1-8.7c-0.4-5,6.6-13.7,6.6-19.6c0-5.9,7-68,8.3-77.1
		C725.8,403.3,737.7,345.3,741.1,342.6z M697.3,224.9v9.6c0,0-0.9,18.7-1.3,22.3c-0.4,3.7-3.1,7.3-3.1,7.3s-0.9-13.7-0.9-16
		c0-2.3,3.5-22.8,3.5-22.8L697.3,224.9z"/>
	<path fill="#3FA9F5" d="M744,228.8l14.4-107.4c0,0-18.5,22.6-33.5,1.4C728.3,147.3,744,228.8,744,228.8z"/>
</g>
<g>
	<path d="M474.9,216.8c0,0,5.9,15.3,6.5,17.5c0.6,2.2-1.1,13.6-1.3,19.1c-0.2,5.5,1.8,15.5,2,19.6c0.2,4.1,0.1,32.1,0.3,37.6
		c0.1,5.5-0.3,30.7,2,35.8c2.3,5.1,10.2,26,11.7,48.4c-0.2,5.2-1,25.7-1.1,30.9c-0.1,5.2-1.7,7.8,0.3,13.2c2,5.4,0.9,8.8,1.3,14.9
		c0.3,6.1,2,16.6,1.1,20.4c-0.9,3.8-8.9,8.9-12.5,8.6c-6.9,0-15.6-0.7-15.7-5.9c-0.1-5.2,2.4-9.7,2.4-13.2c0-3.5-4.6-14.3-6.4-22.7
		c-1.8-8.4-6-24.3-6.1-32.6c-0.2-8.2-4.8-29.2-6.3-34.5c-1.5-5.3-5.6-22.1-7.7-33.8c-2.1-11.7-4.6-24.5-7-31.5
		c-2.4-7.1-4.5-15.2-4.5-15.2l-2.2,0.6c0,0,0.1,15.9-0.4,22.4c-0.5,6.5-3.4,28.5-3,34.3c0.4,5.8-0.3,17.2,0.9,22.8
		c1.2,5.6,2.5,16.6,1.8,25.1c-0.7,8.4-1.1,30,0.5,35.1c1.5,5,5,9.7,4.6,14.1c-0.4,4.4-1.3,13-2.8,14.6c-1.5,1.5-2.7,2.5-5.2,2.9
		c-2.5,0.3-5,4.3-8.1,5.4c-3.1,1.1-12.4,4.2-24.2,0.5c-2.8-2.1-1.7-6.2,3.4-8.2c5.1-2.1,7.9-5.7,7.2-11.2
		c-0.6-5.5-3.8-20.6-3.5-27.4c0.3-6.8-0.7-25-2.5-30.6c-1.7-5.6-4.5-16-4.6-30.8c-0.2-14.8-0.8-37.3-1.8-55.5
		c-1-18.2-5.8-43.8-1.9-64.5c1-6,7.5-32,8.7-32.5C401.7,209.8,451.2,218.7,474.9,216.8z"/>
	<path d="M373.1,238.7c0,0-2.7,12.8-2.8,14.3c-0.1,1.5-2,14.9-0.6,17.2c1.4,2.3,5.9,10.3,9,9.2c3.1-1.1,7.1-5.2,6.7-6.9
		c-0.4-1.7-1.4-4.6-2.7-4.1c-1.3,0.6-4.3,0.2-4.2-0.2c0-0.4-0.1-5.6,0.7-7.2c0.8-1.6,1-1.2,1.4-3.6c0.3-2.4,1.5-5.2,1.6-6.9
		c0.1-1.6,0.7-5.8,0.7-5.8l-0.8-6L373.1,238.7z"/>
	<path d="M421.8,98.1c0,0-0.5-3.8-1.2-5.3c-0.7-1.5-1.9-2-2.6-3.3c-0.7-1.3-3.4-9.3-4.8-11.5c-1.5-2.2-7.4-16-5.3-21
		c0.3-11.5,10.3-20.5,17.9-20.3c7.6,0.2,19.3-0.3,27.6,7.2c2.7,2.7,7.2,13.3,6.6,17.2c-0.5,3.9,1.5,11.8,0.4,15.4
		c-1.1,3.6-1.3,7.9-2.3,10.1c-1,2.2-5.3,7.6-5.5,10c-0.2,2.4-2.5,5.2-5.8,6.1c-3.4,1-20.9-0.9-20.9-0.9L421.8,98.1z"/>
	<path fill="#3FA9F5" d="M407.5,103.9c0,0-7.5,4.9-8.3,11.1c-0.8,6.2-4.7,21.3-5.1,26.4c-0.4,5.2-3,19.8-3.8,26.3
		c-0.8,6.5-2,14.1-2.6,18.7c-0.7,4.6-4.3,8.4-5.7,10c-1.5,1.5-3.6,11.2-3.5,13.1c0.1,1.9-5.1,26.5-5.4,29.2
		c-0.2,2.7,9.8,7.6,9.8,7.6l3.3-3.3c0,0,5.8-13.5,6.2-16.5c0.5-3,3.8-9.3,4-12.3c0.2-3,1.7-4.2,2.8-4.2c1.1,0.1,4.9,6.7,4.9,6.7
		l68.3,9.4l2.4-9.4c0,0,0.1-4.4,1.8-5.1c1.7-0.7,3.7-2.1,4-5.4c0.3-3.3-1.1-3.4-2.5-6.8c-1.4-3.4-0.3-2.8,0.5-6c0,0-0.2-0.8,1.6,0.4
		c1.8,1.3,1,1.5,3.9,3.1c2.9,1.6,3.7,1.7,6.2,1.9c2.4,0.2,5.2-0.4,8.2,0.7c2.9,1.1,8,2.3,9.8,0.5c1.8-1.8,6.2-6.1,6.6-9.9
		c0.3-3.8-0.8-20.9-1.6-24.5c-0.8-3.6-2-15.5-3.9-22.8c-1.9-7.3-9.9-23.8-16-28.7c-6.2-4.9-17.9-12.7-21.3-14.9
		c-3.4-2.2-11.2-3.4-11.2-3.4s-4.9-0.7-10.4,0.3c-2.8,1.1-2.6,1.4-5.5,3.4c-2.9,2-6,2.8-9.5,2.3c-7.4-0.1-12.8-4.1-13.6-4.4
		C421,97,407.5,103.9,407.5,103.9z"/>
	<path d="M456.8,162c0,0-6.3-5.3-7.4-6.5c-1.1-1.2-4-3.3-5-5.3c-1.1-2-3.4-4.9-4.9-5.9c-1.4-0.9-5.6-3.1-4.7-4.6
		c0.9-1.6,4.7-0.6,5.1-0.5c0.4,0.1-2-2.9-2.2-3.3c-0.2-0.4-0.7-4.8,2-3.1c2.7,1.7,2.5,0.8,2.5,0.8s-2.4-6.2,0.7-5
		c3.1,1.2,3.1,1.2,3.1,1.2s0-8.8,5.5-4.9c0,0,8.7,5.5,8.6,12.6c0,0,1,7.6,2.1,8.3c1,0.6,3.7,3.2,4.2,3.5
		C466.9,149.4,456.8,162,456.8,162z"/>
	<path d="M481.1,242.2c0,0,0.7-6.3,0.6-6.9c-0.1-0.6-6.8-18.5-6.8-18.5s0-3.6,1.4-4.8c1.4-1.1,5-2.5,4.4-7c0,0,0.1-1.7-2.3-5.2
		c0,0-1.3-2.2-0.6-3.6c0.2-0.8,1-3,1-3s2.1,0.7,3.5,2.4c0,0,3.3,2.5,5.5,2.9c0.7,0.1,4.3,0.5,5.5,0.4c1.3-0.2,4.2,0.1,5.9,0.9
		c1.4,0.4,3.4,1.2,6.1,1.1c2.3,0,3.1-0.7,3.8-1.5c0.7-0.8,5.1-5.1,5.5-7.6c0.1-0.9,0.4-1.1,0.3-3.3c0-1.7-0.5-16.6-1.1-19.1
		c-0.3-0.8-3.3-24.2-4.2-25.8c-0.3-0.4-2.9-10.8-9.8-21.5c0,0-7.4-3.6-14.3-1.4c-4.1,1-18.1,5.4-23.1,7.3
		c-4.9,1.9-14.8,5.8-15.7,5.7c-0.8-0.1-6-2.1-7.1-3.6c-1.1-1.5,0.1-4.8,1.8-7c1.7-2.2,3.5-9.2,5-12.1c1.5-2.9,3.3-9.9,4.5-13.3
		c1.2-3.5,1.5-8.8,4.2-11.2c2.6-2.4,18.6,0.3,20.9,2.6c0,0,7.5,3.3,8.9,5.5c1.3,2.2,4.7,4.6,8.2,6.6c3.6,1.9,8.4,8.5,10.5,9.7
		c2.1,1.3,6.2,2.8,8.9,5.5c2.7,2.7,14.2,9.4,16.2,33.4c0.5,3.6,3.8,22.8-8.1,47.2c-0.8,2-8.8,20.3-9.6,23.1
		c-0.9,2.8-7.4,15.2-10.9,13.8c-3.5-1.4-5.5-4.7-7.5-2.3C490.6,234.1,487,240.9,481.1,242.2z"/>
	<path d="M429.8,112.6c-10.9,23-0.5,100.8,3.1,101.1c3.5,0.3,14.1-56.1,4-100.8c5.1-5.9,1.5-10.6-2-10.9
		C431.4,101.7,425.2,102.1,429.8,112.6z"/>
	<path d="M442.1,116.6c0.6-7.9-2.2-14.6-6.7-15l0,0l0,0.4c4,0.3,6.9,6.8,6.3,14.6l0,0L442.1,116.6L442.1,116.6z"/>
	<path d="M424.4,115.1c0.6-7.9,5.6-13.8,11-13.4l0,0l0-0.4c-5.7-0.5-10.8,5.7-11.5,13.8l0,0L424.4,115.1L424.4,115.1z"/>
	<polygon points="424.1,115 419.1,98.7 418.7,98.9 423.7,115.1 	"/>
	<polygon points="450.5,109.7 450.2,109.4 442.1,115.3 442.3,115.7 	"/>
</g>
<g>
	<path d="M250.5,298.3c0,0,4.4,3.8,7.3,5.7c2.9,1.9,3.5,2.2,3.2,6c-0.3,3.8,1,7.6-0.3,9.2c-1.3,1.6-3.8,3.2-6,2.9
		c-2.2-0.3-1.6,0.3-4.1-1.3c-2.5-1.6-2.5-2.2-4.1-3.2c-1.6-1-3.2-1-4.1-2.2c-1-1.3-2.9-3.5-1.6-4.4c1.2-0.9,1.2-2.5,1.2-5.1
		c0-2.5,0-8.9,0-8.9L250.5,298.3z"/>
	<path d="M149.1,157.5c0,0,1.3-10.8,0.6-10.5c-0.6,0.3-0.8,2.4-1.6,3.2c-0.8,0.8-1.4,2.2-1.9,1c-0.5-1.3-1.4-1.8-0.1-3.8
		c1.3-2.1,2.1-3.7,3.6-5.5c1.6-1.9,2.2-5.9,1.1-5.1c-1.1,0.8-2.2,2.2-2.2,3.3c0,1.1-0.6,1.6-0.8,2.4c-0.2,0.8-0.9,1.4-1.3,2.2
		c-0.3,0.8-1.1,1.1-1.1,0.5c0-0.6-0.1-3.2,0.5-3.8c0.6-0.6,2.2-3,2.2-3s0.9-3,0.9-3.5c0-0.5,0-3.8,0-3.8s-1.1,0.8-1.1,1.7
		c0,0.9-0.7,3-0.7,3s-0.3-0.9-0.3-1.6c0-0.6-0.6-3,0.3-4.1c1-1.1,2.7-2.1,3-3.3c0.3-1.3-0.6-2.4,1.6-7.6c2.2-5.2,1.1-8.6,4.1-12.8
		c3-4.3,2.8-7.1,7-10.3c4.1-3.2,7.8-6.7,11.1-7.3c3.3-0.6,3.3-0.6,7.4-0.6c4.1,0,2.7-1.3,6,1.3c3.3,2.5,1.3,1.6,5.2,4.8
		c4,3.2,3.2,1.7,5.7,6.5c2.5,4.8,2.8,8.1,4.6,10.9c1.7,2.8,1.7,5.9,2.7,8.3c1,2.4,1.8,4.7,2.5,7.1c0.8,2.4,0.3,1.4,1.9,7.3
		c1.6,5.9,2.4,9.8,2.9,12.5c0.5,2.7,1.3,6.2,1.6,7.4c0.3,1.3,0.5,2.4,0.9,3.3c0.5,1,1.3,5.9,1.3,6.5c0,0.6-1.6,7.9-1.6,7.9
		s-5.9,11.4-6.8,12.7c-0.9,1.3-14.9,7.6-14.9,7.6s-11.7,3.3-12.9,3.2c-1.1-0.2-16-4.4-16-4.4s-6-11.1-6-11.7c0-0.6-1.2-9.5-1.7-10.1
		c-0.5-0.6-7.1-7.9-7.1-7.9L149.1,157.5z"/>
	<path d="M183.8,355.8c0,3.8-0.2,13.5-0.4,19.4c-0.2,5.9-2.3,15.2-2.5,17.8c-0.2,2.5-1.5,11-0.4,16.7c1.1,5.7,1.3,19.2,1.3,25.4
		c0,6.1-0.6,18-0.2,20.7c0.4,2.7,4.2,11,5.3,13.9c1,3,4.2,13.5,5.3,18.6c1,5.1,4,8,4.9,11.6c0.8,3.6,3.8,9.1,0.8,9.5
		c-3,0.4-5.3,0.4-8.2,0.4c-3,0-4.9,0.6-8,0c-3.2-0.6-7-1.7-7.8-5.1c-0.9-3.4-1.1-6.3-1.1-9.3c0-3,0-7.6-0.2-6.8
		c-0.2,0.8-1.1,3.2-1.1,4c0,0.9,0,3.2-0.6,2.5c-0.6-0.6-2.3-0.4-1.7-4c0.6-3.6,1.7-4.2,1.7-8.2c0-4,1.5-11-0.2-16.3
		c-1.7-5.3-7.4-19.2-8.5-22.6c-1.1-3.4-6.5-17.1-6.5-20.5c0-3.4-1.9-16.5-1.5-21.1c0.4-4.6,2.3-11.6,2.1-15.8
		c-0.2-4.2-2.8-12.7-2.8-17.8c0-5.1-1.5-8.7-0.6-10.6c0.8-1.9,9.7-4.7,9.7-4.7l9.5,1.1L183.8,355.8z"/>
	<path d="M198.6,356.9c0,0-1.3,4.2-0.9,7c0.4,2.7,1.3,10.4,1.7,13.1c0.4,2.8,1.7,12.9,1.9,15.2c0.2,2.3-0.4,11.6-1.1,15
		c-0.6,3.4-1.3,9.5-1.3,13.7c0,4.2,0,11.4,0,15.6c0,4.2,0.6,12.3,0.4,17.8c-0.2,5.5-1.5,8.7-2.3,12.5c-0.9,3.8-1.7,7.4-2.1,10.8
		c-0.4,3.4-0.4,5.7-0.2,7.4c0.2,1.7,0.6,3.2,0.6,3.2l0.6-2.1c0,0,1.3,1.3,2.1,3.8c0.8,2.6,2.1,3,2.1,6.8c0,3.8,0.2,6.1,2.5,8.5
		c2.3,2.3,5.9,6.3,7.6,7c1.7,0.6,3.6,0.4,6.1-0.2c2.5-0.6,5.9-2.9,6.3-5.3c0.4-2.3,0.2-4.6-1.9-9.7c-2.1-5.1-3.8-6.8-6.1-11.8
		c-2.3-5.1-2.8-11.6-2.8-16.7c0-5.1,3.6-16.3,5.3-22.4c1.7-6.1,5.1-15.9,5.9-19.9c0.8-4,3.6-24.3,3-29.2c-0.6-4.9-0.6-18.6-0.2-22.8
		c0.4-4.2,2.1-11.8,2.1-14c0-2.1-2.1-9.3-2.1-9.3l-8,1.1L198.6,356.9z"/>
	<path fill="#3FA9F5" d="M123.1,360.1c1.3,0.3,6,1.6,10.8,1.9c4.8,0.3,27,1.3,31.4,1.3c4.4,0,16.8-1.9,20.9-1.9
		c4.1,0,7.9-1.6,10.5-1c2.5,0.6,7.3-1.6,12.4-3.8c5.1-2.2,7.6-3.8,10.5-3.5c2.9,0.3,1.6,3.2,5.4,3.2c3.8,0,3.8,1.2,7.3,1.2
		c3.5,0,3.8,1.3,7.6-0.3c3.8-1.6,5.1-1.9,3.5-6c-1.6-4.1-2.5-6-3.2-8.6c-0.6-2.5-3.5-15.5-4.4-18.1c-1-2.5-4.4-10.8-4.4-13.6
		c0-2.8-3.2-13.9-3.2-13.9l-5.4-14.3l-12-16.2l-21.9-7l-15.8,4.1l-19.6,8.2l-12.7,23.8c0,0-1.9,6-2.2,9.5c-0.3,3.5-4.8,18.4-6,22.2
		c-1.3,3.8-4.7,14.6-6,18.4c-1.3,3.8-1.3,6-1.6,7.9C124.4,355.7,123.1,360.1,123.1,360.1z"/>
	<path fill="#091821" d="M193.8,271.4c-0.9,3.8-1.3,13.3-6,20.9c-4.7,7.6-12.7,17.8-19.7,18.4c-7,0.6-20-1-23.8-2.9
		c-3.8-1.9-13.9-6.7-16.5-7.9c-2.5-1.3-1.9-5.1,0-9.5c1.9-4.4,4.8-11.7,6.7-17.4c1.9-5.7,10.8-27.3,11.7-30.1
		c0.9-2.9-0.9-15.2-1.3-16.5c-0.3-1.3-6-7.9-8.5-10.8c-2.6-2.8-7-13.3-7-18.4c0-5.1,1.3-13.9,1.6-18.1c0.3-4.1,1.3-14.9,2.2-17.7
		c1-2.9,3.8-5.7,7-7c3.2-1.3,10.1-3.8,12.1-3.8c1.9,0,6-1.6,7.9-0.6c1.9,0.9,5.1,6,5.1,6l5.7,6c0,0,4.4,3.8,6.7,4.8
		c2.2,1,13.3,2.5,16.2,2.5c2.8,0,7-0.9,7.3-2.9c0.3-1.9-1.6-4.4-2.8-7c-1.3-2.5-2.5-5.7-2.5-5.7s7.3,0.6,12.4,2.2
		c5.1,1.6,12.4,2.2,14.9,3.2c2.5,0.9,9.2,5.4,10.1,9.5c1,4.1,2.2,16.2,2.5,22.2c0.3,6-1,16.2,0.6,20c1.6,3.8,5.7,18,6.7,23.1
		c1,5.1,4.4,25,4.4,28.8c0,3.8,3.2,13.3,4.1,17.1c0.9,3.8,0.6,10.1,2.2,13.9c1.6,3.8,4.8,6.7,4.8,8.9c0,2.2-1,1.6-5.7,3.2
		c-4.8,1.6-7,2.5-9.8,2.5c-2.9,0-4.1,2.5-5.1,0c-0.9-2.5-5.7-18.7-6.7-23.1c-1-4.4-4.8-13.9-5.4-17.1c-0.7-3.2-5.1-14.9-5.1-18.7
		c0-3.8-1.3-15.5-1.3-15.5s-3.2,6.3-3.2,8.9c0,2.5,0.9,8.2,3.2,13c2.2,4.8,5.7,13.3,6.3,17.7c0.6,4.4,3.5,11.7,4.1,17.8
		c0.6,6,3.8,18.7,1.3,19.6c-2.5,1-8.3,2.9-14.6-1.3c-6.3-4.1-12-13.3-14.6-18.4c-2.5-5.1-5.7-10.8-6-13.3
		C195.7,275.5,193.8,271.4,193.8,271.4z"/>
	<path d="M162.4,171.6c0,0,4.8,0.3,6.7,1c1.9,0.6,6,6.3,6.7,5.1c0.6-1.3,0-7.6,0.9-9.2c0.9-1.6,2.5-10.1,1.3-12.7
		c-1.3-2.5-3.2-6.3-3.2-8.2c0-1.9-0.6-7,1.3-7c0,0,1.7-0.2,1.9-0.9c0.1-0.8-0.5-2.2-1.1-2.2c-0.6,0-1.4,0.3-2.1,0
		c-0.6-0.3-1.1-1.4-1.1-1.9c0-0.5,0.5-0.6,0-1.4c-0.5-0.8-1.4-2.2-2.1-2.4c-0.6-0.2-1-0.2-1.7-0.2c-0.8,0-2.1,0-2.1,0V130
		c0,0,0.5-1.3-0.3-1.4c-0.8-0.1-0.8-0.6-2.1,0c-1.3,0.7-0.2-0.6-1.9,1.1c-1.7,1.7-3.2,3-3.5,3.9c-0.3,1,0,2.1-0.9,1.9
		c-1-0.2-0.3-1.9-1-0.2c-0.6,1.7-0.9,3.7-0.9,5.2c0,1.6,0,2.7,0,4.1c0,1.4-0.5,2.4,0,4.1c0.5,1.7,2.1,2.5,3.2,4.7
		c1.1,2.2,2.5,2.9,3.2,5.4c0.6,2.5,1.7,3,1.1,5.7c-0.6,2.7-0.9,4.1-1.4,4.7C162.7,170.1,162.4,171.6,162.4,171.6z"/>
</g>
<g>
	<path d="M910,484.8c0.4,3.3,3.3,20.8,2,25.2c-1.2,4.5-5.7,11-7.3,13.8c-1.6,2.8-6.9,10.2-6.5,11.8c0.4,1.6,0.8,2.4,2.8,2.9
		c2,0.4,13.4,2.8,19.1,1.2c5.7-1.6,18.7-7.3,19.5-9c0,0,1.2-6.9,2.5-6.9c1.2,0,2,1.4,3.2,0c1.2-1.4,2.4-2.4,2.8-4.1
		c0.4-1.6,0-7.7-0.4-9.8c-0.4-2-3.2-8.5-3.7-13.4c-0.4-4.9,0.8-6.1-1.2-11.8c-2-5.7-3.7-7.3-1.2-7.7c2.5-0.4,13.5-2,15.1-3.7
		c1.6-1.6,2-6.5,1.2-9.8c-0.8-3.3-0.4-10.2-2.8-13c-2.5-2.9-11.8-9.4-12.6-13c-0.8-3.7-3.3-50.1-3.7-59c-0.4-9,9.8-48.9,13.4-54.2
		c3.7-5.3,13.4-6.9,14.7-11.8c1.2-4.9-6.5-57.4-10.6-67.6c-4.1-10.2-5.3-14.7-5.3-21.6c0-6.9,0.4-17.9,1.2-15.1
		c0.8,2.8,12.2,13.4,17.9,13.4c5.7,0,10.2,0.8,12.6-2.9c2.4-3.7,6.5-25.7,6.5-30.1c0-4.5-10.2-38.7-10.6-44.4
		c-0.4-5.7,1.2-24.4,0-26.5c-1.2-2-17.5-2-20,0.4c-2.5,2.4-5.7,6.9-2.8,9.4c2.8,2.4,5.7,11,6.1,13c0.4,2,3.3,5.7,3.3,7.7
		c0,2,0.8,5.7-0.4,7.3c-1.2,1.6-4.1-4.1-4.9-8.5c-0.8-4.5-2.4-10.6-6.1-10.6c-3.7,0-29-3.7-34.2-5.3c-3.9-1.2-7.5-5-9.8-7.3
		c-2.7-2.7-0.8-6.1-0.8-8.6c0-2.4,2-13.6,1.1-21c-1-7.7-3.4-21.7-11.1-25.8c-7.7-4.1-19.3-4.2-24.2-3.3c-8.1,1.6-13.8,6.9-15.1,15.5
		c-1.2,8.6,0.8,28.1,5.7,34.6c4.9,6.5,8.2,9,9.4,11.4c1.1,2.2,1.2,3.7,0,5.7c-1.2,2-31.3,17.5-32.2,20.4c-0.8,2.8-3.3,31.8-4.9,29.7
		c-1.6-2.1-6.9-10.2-6.5-17.9c0.4-7.7,3.7-20.4,3.7-24.4c0-4.1,1.2-10.6-0.4-11c-1.6-0.4-4.5,3.3-4.5,5.3c0,2-0.8,9-1.6,6.9
		c-0.8-2-4-6-5.7-6.1c-6.2-0.3-10.6,5.3-13,9.8c-2.4,4.5-2.9,11,0.8,15.9c3.7,4.9,9.8,18.7,9.4,22c-0.4,3.3-2.1,8.1-0.8,13.4
		c1.2,5.3,9.4,34.6,17.1,36.7c7.7,2,9,1.6,13-1.2c4.1-2.9,12.2-16.7,14.2-15.9c2,0.8,6.1,22.8,5.7,28.5c-0.4,5.7-6.5,45.2-6.5,51.7
		c0,6.5-3.3,26.5-1.2,27.3c2,0.8,4.1,0,4.5,3.2c0.4,3.3-4.1,44.4-4.1,48.9c0,4.5,0.7,11,2.8,16.3c1.8,4.3,15.9,23.6,22,31.8
		c6.1,8.1,21.6,24.4,21.6,26.9c0,2.4,2,9,0.8,12.6c-1.2,3.7,0,5.7-4.5,7.3c-4.5,1.6-17.1,4.8-17.9,6.5c-0.5,1.1-1.2,4.1,0,5.3
		c1.2,1.2,2.9,3,8.1,3.7C897.8,486.4,910,484.8,910,484.8z"/>
	<path fill="#FF931E" d="M879.5,138.7l10.5,98.6c0,0,20.7-95.4,20.1-99.8C888.2,151.4,879.5,138.7,879.5,138.7z"/>
	<g>
		<path d="M891.8,153c-2.3-0.5-2.1-1.4-2.8-4.4c-0.5-2.3,2.5-4.2,5.3-4.1c2.8,0.2,4.9,2.2,4.8,4.6c-0.1,2.1-1.4,5-3.6,4.1
			c2.2,5.2,7.7,23.9,3.2,45.4c-3.8,18.2-8.2,38.8-8.7,38.8c-0.8,0-3.9-25.2-5.2-46C883.6,172.4,888.9,157.4,891.8,153z"/>
		<path d="M887.2,153.3c0.3-2.6,1.1-5,2.3-6.6l0,0c1.2-1.6,2.6-2.5,4-2.3l0,0l0.1-0.5c-3.3-0.3-6.2,3.9-6.8,9.3l0,0L887.2,153.3
			L887.2,153.3z"/>
		<path d="M910.7,143.2l-0.3-0.4l-9.6,9.6c-0.9-4.7-3.3-8.3-5.8-8.4l0,0c-0.2,0-0.4,0-0.5,0l0,0l0,0l0.1,0.5c0.1,0,0.3,0,0.4,0l0,0
			c2.1,0,4.6,3.6,5.4,8.5l0,0l0.1,0.5L910.7,143.2L910.7,143.2z"/>
		<polygon points="887.4,153.2 879.2,143.5 878.8,143.8 887,153.5 		"/>
	</g>
	<path fill="#FFFFFF" d="M822.6,194.6c0,0,6.8-2.3,9.3-3.6c1.9-1,4.9-5.7,4.9-5.7l0.5,1.1c0,0-0.8,3-2.5,4.6c-1.6,1.6-5.3,3.5-6.8,4
		c-1.9,0.6-4.6,0.9-4.6,0.9L822.6,194.6z"/>
	<polygon fill="#FFFFFF" points="966.3,152.6 979.2,152 980.8,155.7 966.1,155.9 	"/>
</g>
<g>
	<g>
		<path d="M582.3,64.3c29.8-0.6,27.3,40.7,34.8,70.6c3.4,13.6,12.9,27.7,14.7,44.1c0.5,4.7-1.3,10.1-1.3,15.1
			c0.1,37.2,15.8,77,1.3,100.8c21.5,55.8,22.4,131,34.8,195.3c5.8,2.2,17.4-1.2,16.1,7.6c-5,6.7-21.2,2.7-32.1,3.8
			c-7.1-3-4.7-14.9-16.1-13.9c-3.8,2.7,1.9,14.3-5.4,13.9c-5.5-0.7-0.2-11.6-5.4-12.6c-10.1-0.6-17.1,2.9-24.1-1.3
			c-10.3-49.6,4.3-122.5-16.1-162.6C582.4,382,570.8,450,589,491.8c-6,3.6,6.5,2.9,5.4,9.9c-0.9,4.2-36.1,6-37.5-5
			c0.3,3.6,0.2,6.9-4,6.3c-1.6-7.3-8.5-9.6-17.4-10.1c0.7-40.2,0.7-84.7,2.7-126c1.2-25,3.1-71.9-5.4-88.2c-4.2-0.4-6.4,2.9-9.4,0
			c-9.4-21.8-26.7-44.5-25.5-70.6c1.3-27.3,24.4-58.9,31.8-69c4-5.4,11-9.2,15.1-12.9C549.3,100.3,554.9,64.9,582.3,64.3z
			 M538.1,181.5c-12,12.3-10.4,43.9-2.7,59.2c1.4-6.5,5.7-11.6,10.7-23.9C549.8,200.1,542.6,190.7,538.1,181.5z"/>
		<path fill="#FFFFFF" d="M613.6,247.2c1,4.9,2.1,8.9,2.4,8.8c0.3-0.1-0.2-4.1-1.2-9.1c-1-4.9-2.1-8.9-2.4-8.8
			C612.1,238.2,612.6,242.3,613.6,247.2z"/>
	</g>
	<path fill="#FF931E" d="M607.8,264.8c-4.4,0.6-37.2,1.4-36.2-1.8c0.9-3.1,20-43.9,21-42.1c1,1.8,6.5,16.9,8.3,21.6
		c1.2,3.1,2.6,8.1,3.5,10.7C605.3,255.8,607.8,264.8,607.8,264.8z"/>
	<path fill="#FF931E" d="M592.6,218.1c0.1-5.4,2.3-22.8-1-29.2c-3.2-6.4-23.4-39.8-22.2-40.5c1.2-0.6,15.6,6.7,17.7,6.3
		c2.1-0.4,8.4-12.6,9.1-11.1c0.8,1.5,11.3,30.4,11.2,41.2c0,3.1-1,13-4.2,19.9C601.9,207.5,592.6,218.1,592.6,218.1z"/>
</g>
<g>
	<path d="M242.7,221.3c3.2,0,2.2-0.4,6.4-1.4c12.6,20.6,18.5,45.2,23.7,78c3.3,20.8,6.9,29.9,1.4,52c-4.9,19.3-12.4,38-13.7,60.2
		c-1,17.7-2.1,35.9-4.1,52c-1.4,11.3-6,16.1,0,27.4c1.6,0.6,3.2,1,4.8,1.4c1.1,5.6,5.4,10.2,11.3,11.3c7.7,1.4,15.1-3.8,16.5-11.5
		c0-0.1,0-0.2,0.1-0.4c2-0.6,3.9-1.4,5.6-2.2c2.9-62.3,17.5-133.5,20.5-195.7c11.8,28.4-3.2,73.1-6.8,99.9
		c-2.3,16.8-0.7,34.1-2.7,50.6c-2.1,17.1-11.8,34.4-6.8,52c5.6,7.4,15.5,8.1,23.3,1.4c2.5-3.5,6.5-6.6,5.9-13.1
		c7.7,0,13.7-0.6,21.4-0.6c3.1-49.5,5.3-104.3,9.6-157.3c3.6-44.7,14.9-87.3-2.7-124.5c7.9-6.3,24.3-9,26-21.4
		c-5-31.9-11-52.4-26-74.3c-3.3-3.1-10.4-2.4-15.1-4.1c-11.9-9.4-4.1-26.8-5.5-41c-2-20-23.3-48.6-46.5-34.2
		c-15.8,17.4-13.1,42.7-24.6,67c-4.5,9.4-14.6,15.5-14.3,28.4c-2.6,13.5-16.8,35.8-18.6,55C230.1,193.3,238.7,207.5,242.7,221.3z
		 M348.1,152.9c0.2,2.2,8.6,15.7,2.2,23.6C348.5,167.3,340.6,160.9,348.1,152.9z M266.9,160.6c1.1,18.5,7.8,40.9-2.3,53.8
		C262.7,199.2,251.8,169.1,266.9,160.6z"/>
	<path fill="#FF931E" d="M342.4,132.2c0,0-2.2-6-3.6-8c0,0-2.4-3.6-3.7-5.4c-1.2-1.7-3.8-6.3-4.6-7.1c-0.8-0.8-8.8-9.1-9.8-9.4
		c-1-0.3-2.4-1.1-2.4-1.1s2.1,2.3,2.4,2.9c0.3,0.7,2.8,8.6,2.3,10.1c-0.5,1.5-5.6,10.2-7.6,11.4c-0.9,0.5-2.9,0.8-2.9,0.8
		s-2.7-0.4-4.3-2.1c-1-1.1-4.6-5-6.6-7.3c-2-2.3-8-10.8-9-12.8c-1-2-0.6-3.9-0.6-3.9s-3.4,1.7-4.2,4.4c-0.8,2.7-2.8,7-3.5,9.4
		c-0.6,2.4-5.4,11.4-5.4,11.4s3.8-0.3,6.2-0.7c2.4-0.3,4.7-1.1,6.9-2.4c2.2-1.3,5.3-3.6,5.3-3.6s6.5,15.3,7,17.1
		c0.5,1.8,3.3,7.8,4.4,10.9c0.9,2.4,1.7,8.2,1.8,9.4c0.2,1.2,1.2,8.5,1.2,8.5s1.7-6.6,2.5-7.9c0.8-1.3,1.8-4.3,2.3-7.4
		c0.5-3.1,2.5-12.8,3.3-15.3c0.9-2.5,1.2-6.2,2.3-7.9c1.3-1.9,2-3.8,3.1-2.8c1.1,1,14.8,7.8,14.8,7.8L342.4,132.2z"/>
</g>
</svg>
